<svg viewBox="0 0 100 100" xmlns="http://www.w3.org/2000/svg">
  <!-- Background circle for visibility -->
  <circle cx="50" cy="50" r="48" fill="#f5f0f8" stroke="#c9b3d5" stroke-width="2"/>

  <!-- Graduation cap (Navy) -->
  <path d="M 20 45 L 50 25 L 80 45 Z" fill="#001f3f"/>
  <rect x="48" y="45" width="4" height="25" fill="#001f3f"/>
  <circle cx="50" cy="70" r="2.5" fill="#ffd700"/>

  <!-- Open book (Maroon) -->
  <path d="M 30 55 Q 40 60 50 60 Q 60 60 70 55" stroke="#800020" stroke-width="3" fill="none" stroke-linecap="round"/>
  <path d="M 32 60 L 35 75" stroke="#800020" stroke-width="2" stroke-linecap="round"/>
  <path d="M 50 60 L 50 78" stroke="#800020" stroke-width="2" stroke-linecap="round"/>
  <path d="M 68 60 L 65 75" stroke="#800020" stroke-width="2" stroke-linecap="round"/>

  <!-- Gold accent star -->
  <g transform="translate(78, 32)">
    <polygon points="0,-4 1,-1.5 3.5,-1 1.5,0.5 2,3 0,1.5 -2,3 -1.5,0.5 -3.5,-1 -1,-1.5" fill="#ffd700"/>
  </g>
</svg>